<svg version="1" xmlns="http://www.w3.org/2000/svg" width="682.667" height="682.667" viewBox="0 0 512.000000 512.000000"><path d="M235.6 14.6c-3.6 22-9.9 36.3-20.1 45.2-8.8 7.7-28 20-46.6 29.8-45.4 23.8-73.6 47.6-96.6 81.6-18.4 27.2-31.7 64.1-35.4 98-1.5 13.3-.6 45.4 1.6 57.3 8.5 46.9 27.7 83.9 60.4 116.6 34 34 75.4 54.6 125.7 62.6 15.3 2.4 50.8 2.4 65.4 0 56.5-9.5 103.3-35.8 138.1-77.7 22.8-27.4 37.8-60.3 45.1-99 1.9-9.8 2.2-15 2.2-35.5 0-20.6-.3-25.7-2.2-36-10.4-55.5-38.5-103.6-81.4-139.6-19.6-16.4-38.1-27.5-61.6-36.8-15.7-6.3-24.3-10.6-34-17.1-17.1-11.5-25.1-19.6-56.8-57.8l-2.1-2.5-1.7 10.9zm7.3 8.1c7.3 27.3 6.3 37.6-4.9 48.4l-5 4.8 2.5 3.7c1.4 2 2.5 4.5 2.5 5.4 0 3.3-6.9 15.5-13.3 23.5-9.5 11.8-30.8 32-44.8 42.5-21.6 16.1-48.2 31.7-69.2 40.5C97.4 197 90 199 82.5 199c-4.9 0-6-.4-8.6-2.9-3.8-3.9-4-10.3-.4-18 7.1-15.2 30.6-41 51.8-56.9 13-9.8 24.9-17.1 45.7-28.2 25.7-13.6 45.6-27.1 53.3-36 7.4-8.7 13-22.6 14.3-35.7.4-3.5 1-6.3 1.4-6.3.4 0 1.7 3.5 2.9 7.7zm-8.2 272.9c16 4.1 26.4 9.8 61.6 33.1 23.5 15.6 30.9 19.3 38.5 19.3 10.4 0 17.8-3.8 51.7-26.3 24-16 31.1-19.7 39.3-20.4 12.4-1.1 22 4.2 28 15.5 9.6 18.1 7.7 44.8-5.3 73.7-5.9 13.2-17.3 26.8-25.2 30.1-4.3 1.8-13.5 1.8-17.9-.1-2.2-.9-11.8-9.5-23.8-21.3-22.3-21.9-29.9-28-38.4-31.2-11.5-4.4-19.2-2.1-45.7 13.6C233.9 419.2 222 424 194.1 424c-14.8 0-23-1.8-33.3-7.2-11.7-6.1-19.4-13.9-23.6-24.2-4.2-10-5.4-16.3-4.8-26.3.8-15.6 8.5-33.5 19.5-45.5 9.4-10.3 28.4-21.6 40.9-24.4 15.7-3.4 30.7-3.7 41.9-.8zm101.9 103.5c8.3 1.5 11.9 4.1 17.5 12.7s6.3 13 2.7 16.9c-3.8 4-6.4 3.1-9.7-3.6-3.8-7.4-6.4-9.5-14.1-11.1-12.6-2.7-25.9.5-35.1 8.3-12.3 10.5-14.3 11.3-17.9 7.7-2.8-2.8-2.5-6.2.7-10.1 4.1-4.8 16.8-14.5 22.8-17.4 8.8-4.1 21.8-5.5 33.1-3.4zm32.4 52.8c3.4 6.4-.8 11.3-16.2 18.9-19.5 9.8-37.8 12.9-68.8 11.9-18.2-.6-29.3-3.3-40-9.7-9.4-5.6-10-6.2-10.9-10.2-1-4.3.4-7 4.9-9.3 4.1-2.1 5.4-1.9 10.7 1.9 6.9 4.8 9.7 6.1 19.8 8.7 8 2 11.3 2.3 31 2.3 17.2 0 23.7-.4 29.8-1.8 12.9-2.8 19.8-5.3 27.7-10 8.5-5 10.5-5.4 12-2.7z"/></svg>
